<svg xmlns="http://www.w3.org/2000/svg" viewBox="0 0 80 80">
  <polygon points="40,1 0,31 15,79 65,79 80,31" fill="#2d4047"/>
  <g fill="#b5d290">
    <path d="M 30 46
           C 30 39 39 35 39 28
           L 39 24
           L 41 24
           L 41 28
           C 41 35 50 39 50 46
           C 50 49 40 59 40 62
           C 40 59 30 49 30 46
    "/>
    <path d="M 35 23
           A 5 5 0 0 0 45 23
           Z
    "/>
    <path fill-rule="evenodd"
          d="M 40 24
           A 8 8 0 0 0 40 40
           A 8 8 0 1 0 40 24
           Z
           M 40 26
           A 6 6 0 0 0 40 38
           A 6 6 0 1 0 40 26
    "/>
  </g>
<!--  <rect x="0" y="0" width="100" height="100" fill="#31a037"/>-->
<!--  <circle cx="50" cy="50" r="30" fill="#dedc00"/>-->
</svg>
