<svg viewBox="0 0 120 120" xmlns="http://www.w3.org/2000/svg">
  <path d="M 30 15
         C 28 14 27 15 27 17
         L 27 36
         L 28 37
         L 40 45
         C 34 47 29 52 25 58
         L 24 60
         L 25 62
         C 29 68 34 73 40 75
         L 28 83
         L 27 84
         L 27 103
         C 27 105 28 106 30 105
         L 94 62
         C 95 61 95 59 94 58
         Z
         M 67 60
         L 55 66
         C 56 65 56 62 56 60
         C 56 58 56 55 55 54
         Z
         M 48 53
         C 47 55 47 57 47 60
         C 47 63 47 65 48 67
         C 43 66 39 64 36 60
         C 39 56 43 54 48 53" fill="white"/>
</svg>
